<svg width="200" height="200" viewBox="0 0 200 200" fill="none" xmlns="http://www.w3.org/2000/svg">
<circle cx="100" cy="100" r="97.6406" fill="#000000"/>
<path d="M100 2.35938C127.729 2.35943 152.758 13.919 170.532 32.4814L142.413 62.3594H87.6406V62.7803C80.4948 63.1073 74.8018 69.0039 74.8018 76.2305C74.8023 83.6664 80.8305 89.6943 88.2666 89.6943H110.625C129.107 89.6944 144.09 104.677 144.09 123.159C144.09 141.641 129.107 156.624 110.625 156.624H68.958L59.4229 166.204C71.2308 173.457 85.1266 177.641 100 177.641C142.879 177.641 177.641 142.879 177.641 100C177.641 88.672 175.214 77.9113 170.853 68.208L185.441 52.707C193.214 66.7184 197.641 82.842 197.641 100C197.641 153.925 153.925 197.641 100 197.641C46.0747 197.641 2.35947 153.925 2.35938 100C2.35938 46.0747 46.0747 2.35938 100 2.35938ZM100 22.3594C57.1204 22.3594 22.3594 57.1204 22.3594 100C22.3594 120.765 30.5115 139.627 43.79 153.559L57.7139 139.57L60.6455 136.624H110.625C118.061 136.624 124.09 130.595 124.09 123.159C124.09 115.723 118.061 109.694 110.625 109.694H88.2666C69.7848 109.694 54.8023 94.7121 54.8018 76.2305C54.8018 57.7484 69.7845 42.7656 88.2666 42.7656H136.226L143.529 35.7012C131.114 27.2799 116.132 22.3594 100 22.3594Z" fill="#ffffff" transform="translate(100 100) scale(0.83) translate(-100 -100)"/>
</svg>
